
<svg width="10em" viewBox="0 0 205 27" fill="none" xmlns="http://www.w3.org/2000/svg">
<path d="M0.212358 26V0.545454H17.0661V4.9826H5.59411V11.0479H15.9474V15.4851H5.59411V26H0.212358ZM21.036 26V0.545454H26.4177V21.5629H37.3304V26H21.036ZM46.2812 26H40.5142L49.3015 0.545454H56.2368L65.0117 26H59.2447L52.8686 6.36222H52.6697L46.2812 26ZM45.9208 15.9947H59.543V20.1957H45.9208V15.9947ZM69.8455 0.545454L75.9978 19.8849H76.234L82.3987 0.545454H88.3646L79.5898 26H72.6544L63.8671 0.545454H69.8455ZM113.734 13.2727C113.734 16.0485 113.208 18.41 112.156 20.3572C111.112 22.3045 109.686 23.7918 107.88 24.8192C106.082 25.8384 104.06 26.348 101.815 26.348C99.5527 26.348 97.5226 25.8343 95.7246 24.8068C93.9265 23.7794 92.5055 22.292 91.4614 20.3448C90.4174 18.3976 89.8954 16.0402 89.8954 13.2727C89.8954 10.4969 90.4174 8.13542 91.4614 6.18821C92.5055 4.241 93.9265 2.75781 95.7246 1.73864C97.5226 0.711174 99.5527 0.197442 101.815 0.197442C104.06 0.197442 106.082 0.711174 107.88 1.73864C109.686 2.75781 111.112 4.241 112.156 6.18821C113.208 8.13542 113.734 10.4969 113.734 13.2727ZM108.278 13.2727C108.278 11.4747 108.009 9.95833 107.47 8.72372C106.94 7.48911 106.19 6.55279 105.22 5.91477C104.251 5.27675 103.116 4.95774 101.815 4.95774C100.514 4.95774 99.3787 5.27675 98.4092 5.91477C97.4398 6.55279 96.6857 7.48911 96.1472 8.72372C95.6169 9.95833 95.3517 11.4747 95.3517 13.2727C95.3517 15.0708 95.6169 16.5871 96.1472 17.8217C96.6857 19.0563 97.4398 19.9927 98.4092 20.6307C99.3787 21.2687 100.514 21.5877 101.815 21.5877C103.116 21.5877 104.251 21.2687 105.22 20.6307C106.19 19.9927 106.94 19.0563 107.47 17.8217C108.009 16.5871 108.278 15.0708 108.278 13.2727ZM118.071 26V0.545454H128.113C130.036 0.545454 131.676 0.889322 133.035 1.57706C134.402 2.25651 135.442 3.22183 136.155 4.47301C136.876 5.71591 137.236 7.17838 137.236 8.86044C137.236 10.5508 136.872 12.005 136.142 13.223C135.413 14.4328 134.357 15.3608 132.973 16.0071C131.598 16.6534 129.932 16.9766 127.977 16.9766H121.253V12.6513H127.107C128.134 12.6513 128.988 12.5104 129.667 12.2287C130.346 11.947 130.852 11.5244 131.183 10.9609C131.523 10.3975 131.693 9.69732 131.693 8.86044C131.693 8.01527 131.523 7.30267 131.183 6.72266C130.852 6.14264 130.342 5.70348 129.655 5.40518C128.975 5.0986 128.118 4.94531 127.082 4.94531H123.453V26H118.071ZM131.817 14.4162L138.144 26H132.203L126.013 14.4162H131.817Z" fill="#FFA500"/>
<path d="M141.39 26V0.545454H158.243V4.9826H146.771V11.0479H157.125V15.4851H146.771V26H141.39ZM177.936 0.545454H183.318V17.076C183.318 18.9321 182.874 20.5561 181.988 21.9482C181.109 23.3402 179.879 24.4257 178.296 25.2045C176.714 25.9751 174.87 26.3604 172.765 26.3604C170.652 26.3604 168.805 25.9751 167.222 25.2045C165.639 24.4257 164.409 23.3402 163.531 21.9482C162.652 20.5561 162.213 18.9321 162.213 17.076V0.545454H167.595V16.6161C167.595 17.5856 167.806 18.4473 168.229 19.2013C168.66 19.9554 169.265 20.5478 170.043 20.9787C170.822 21.4096 171.73 21.625 172.765 21.625C173.809 21.625 174.717 21.4096 175.487 20.9787C176.266 20.5478 176.867 19.9554 177.289 19.2013C177.72 18.4473 177.936 17.5856 177.936 16.6161V0.545454ZM188.095 26V0.545454H193.477V21.5629H204.39V26H188.095Z" fill="#5DB46F"/>
</svg>
